HIERARCHY
ROOT hip
{
	OFFSET 0.000000 0.000000 0.000000 
	CHANNELS 6 Xposition Yposition Zposition Xrotation Zrotation Yrotation
	JOINT abdomen
	{
		OFFSET 0.000000 3.402643 0.000000 
		CHANNELS 3 Xrotation Zrotation Yrotation
		JOINT chest
		{
			OFFSET 0.000000 8.438565 -0.680529 
			CHANNELS 3 Xrotation Zrotation Yrotation
			JOINT neck
			{
				OFFSET 0.000000 10.207942 -0.272212 
				CHANNELS 3 Xrotation Zrotation Yrotation
				JOINT head
				{
					OFFSET 0.000000 3.130431 0.000000 
					CHANNELS 3 Xrotation Zrotation Yrotation
					End Site
					{
						OFFSET 0.000000 3.130435 0.000000 
					}
				}
			}
			JOINT lCollar
			{
				OFFSET 3.470700 6.669187 -0.816635 
				CHANNELS 3 Yrotation Zrotation Xrotation
				JOINT lShldr
				{
					OFFSET 3.198488 0.000000 0.000000 
					CHANNELS 3 Zrotation Yrotation Xrotation
					JOINT lForeArm
					{
						OFFSET 10.139888 0.000000 0.000000 
						CHANNELS 3 Yrotation Zrotation Xrotation
						JOINT lHand
						{
							OFFSET 8.370511 0.000000 0.000000 
							CHANNELS 3 Zrotation Yrotation Xrotation
							End Site
							{
								OFFSET 4.083176 0.000000 0.000000 
							}
						}
					}
				}
			}
			JOINT rCollar
			{
				OFFSET -3.470700 6.669187 -0.816635 
				CHANNELS 3 Yrotation Zrotation Xrotation
				JOINT rShldr
				{
					OFFSET -3.198488 0.000000 0.000000 
					CHANNELS 3 Zrotation Yrotation Xrotation
					JOINT rForeArm
					{
						OFFSET -10.139888 0.000000 0.000000 
						CHANNELS 3 Yrotation Zrotation Xrotation
						JOINT rHand
						{
							OFFSET -8.370511 0.000000 0.000000 
							CHANNELS 3 Zrotation Yrotation Xrotation
							End Site
							{
								OFFSET -4.083176 0.000000 0.000000 
							}
						}
					}
				}
			}
		}
	}
	JOINT lThigh
	{
		OFFSET 5.308129 -1.633274 1.361059 
		CHANNELS 3 Xrotation Zrotation Yrotation
		JOINT lShin
		{
			OFFSET -2.041588 -20.007561 0.000000 
			CHANNELS 3 Xrotation Zrotation Yrotation
			JOINT lFoot
			{
				OFFSET 0.000000 -19.190928 -1.224953 
				CHANNELS 3 Xrotation Yrotation Zrotation
				End Site
				{
					OFFSET 0.000000 -2.449906 4.627600 
				}
			}
		}
	}
	JOINT rThigh
	{
		OFFSET -5.308129 -1.633274 1.361059 
		CHANNELS 3 Xrotation Zrotation Yrotation
		JOINT rShin
		{
			OFFSET 2.041588 -20.007561 0.000000 
			CHANNELS 3 Xrotation Zrotation Yrotation
			JOINT rFoot
			{
				OFFSET 0.000000 -19.190928 -1.224953 
				CHANNELS 3 Xrotation Yrotation Zrotation
				End Site
				{
					OFFSET 0.000000 -2.449906 4.627600 
				}
			}
		}
	}
}
MOTION
Frames: 13
Frame Time: 0.011111
2.270744 51.102879 16.862633 -0.156425 4.100166 3.065011 24.325106 -0.418089 -8.806355 -22.461081 7.945940 -2.178702 -16.523262 -6.713162 0.587839 35.612080 6.591527 1.289449 9.553514 -10.448139 3.647584 -65.078369 -40.587502 32.464603 -57.071678 8.964699 11.109411 8.524705 12.647240 -55.950573 -5.779580 5.050342 2.610686 71.861221 18.651619 4.156315 44.612911 -6.278844 6.068431 -8.534408 -12.637552 30.999859 21.008821 1.161452 -4.737940 26.615385 -5.513090 -4.418920 -8.657730 -6.209431 -4.275056 -23.871206 -10.095567 2.156959 22.327850 5.678144 3.813904 -3.999767 -1.022258 3.074661 
2.216964 51.151310 17.559898 -0.302941 3.442026 2.696706 24.284409 0.301451 -8.286176 -22.667624 7.717377 -2.127001 -16.597090 -6.651116 0.634482 36.192951 6.366154 1.344743 9.553514 -10.448139 3.647584 -65.226555 -39.988113 31.960569 -57.167976 8.979713 11.153474 8.524705 12.647240 -55.843147 -5.779580 5.050342 2.610686 71.788322 18.480404 3.769175 44.314529 -6.181408 5.949365 -8.534408 -12.637552 30.208843 20.317509 1.757277 -4.230188 28.512333 -5.416149 -4.663918 -6.030688 -6.132246 -3.993177 -23.207521 -9.148527 1.717220 23.068314 5.648566 3.923854 -3.697677 -0.253720 3.129888 
2.178908 51.207924 18.252754 -0.361535 2.884521 2.120531 24.121920 0.840266 -7.655871 -22.903610 7.481237 -2.028223 -16.515820 -6.632372 0.655497 36.549847 6.206504 1.375670 9.553514 -10.448139 3.647584 -65.405037 -39.375397 31.400990 -57.220863 8.985744 11.175710 8.524705 12.647240 -55.677139 -5.779580 5.050342 2.610686 71.712479 18.270218 3.242252 43.945869 -6.070840 5.812759 -8.534408 -12.637552 29.212746 19.403973 2.157646 -3.684078 30.542950 -5.303984 -4.924833 -3.033616 -5.610114 -3.629105 -22.556087 -8.270708 1.064696 23.838892 5.613507 4.015711 -3.687382 0.421370 3.188749 
2.116007 51.304161 18.977068 -0.468808 2.400944 2.207000 23.940502 1.422505 -7.495032 -22.962187 7.302545 -2.045245 -16.408527 -6.653285 0.642242 36.752583 6.148175 1.356522 9.553514 -10.448139 3.647584 -65.523720 -38.887970 31.102606 -57.284672 8.993577 11.198202 8.524705 12.647240 -55.393929 -5.779580 5.050342 2.610686 71.671135 17.989120 3.010475 43.854237 -6.048278 5.785586 -8.534408 -12.637552 28.656111 18.374844 2.792034 -3.581893 32.656570 -5.177494 -5.216163 0.259597 -5.145822 -3.232675 -21.674797 -7.615437 0.463966 24.576380 5.580957 4.123659 -4.004995 0.758360 3.228920 
2.068516 51.381535 19.639734 -0.517607 1.969980 1.857284 23.927668 1.836278 -6.975550 -23.060102 7.041048 -1.954314 -16.670807 -6.541114 0.636215 37.266418 6.049401 1.328563 9.553514 -10.448139 3.647584 -65.616135 -38.650333 30.800783 -57.220863 8.985744 11.175710 8.524705 12.647240 -55.296272 -5.779580 5.050342 2.610686 71.740715 17.857040 3.246054 44.048702 -6.106037 5.853831 -8.534408 -12.637552 28.841652 17.163584 3.172632 -3.160948 34.765938 -5.040259 -5.470975 3.625103 -4.562145 -2.815730 -21.107822 -6.932012 0.304743 25.179754 5.565365 4.194275 -4.173943 1.577081 3.301439 
2.004042 51.462048 20.295795 -0.664092 1.727882 1.620711 24.085718 1.977352 -6.679195 -23.246801 6.931741 -1.902119 -16.963781 -6.481866 0.660506 37.760162 6.090667 1.387872 9.553514 -10.448139 3.647584 -65.740364 -38.300442 30.425919 -57.093384 8.969166 11.119574 8.524705 12.647240 -55.179089 -5.779580 5.050342 2.610686 71.816223 17.802876 3.393768 44.304802 -6.182715 5.948014 -8.534408 -12.637552 29.036968 16.033443 3.466213 -2.839690 36.910263 -4.894267 -5.712624 6.910010 -4.414740 -2.417966 -20.299852 -6.454038 0.219361 25.513353 5.541667 4.258039 -4.529728 1.975552 3.362970 
1.922899 51.568031 20.987400 -1.054441 1.510303 1.925912 24.423618 2.194958 -6.692759 -23.108892 6.855929 -1.919915 -17.368227 -6.421837 0.631576 37.911484 6.073202 1.269846 9.553514 -10.448139 3.647584 -65.954735 -38.206612 30.178282 -57.072971 8.970005 11.117507 8.524705 12.647240 -55.140030 -5.779580 5.050342 2.610686 71.953194 18.292778 2.759902 44.171761 -6.145461 5.905541 -8.534408 -12.637552 28.743998 15.062977 3.933585 -3.042215 39.168507 -4.728518 -5.983140 9.853807 -4.762401 -1.958292 -18.856236 -6.064008 0.114161 25.483700 5.541547 4.245675 -4.946468 1.511584 3.324570 
1.857481 51.677483 21.641888 -1.210806 1.172864 1.421045 24.599962 2.359745 -6.078410 -23.030285 6.759335 -1.767799 -17.483299 -6.577379 0.669715 37.769325 6.333997 1.360825 9.553514 -10.448139 3.647584 -66.201721 -38.118793 29.997377 -56.997082 8.953971 11.075583 8.524705 12.647240 -55.198616 -5.779580 5.050342 2.610686 71.959564 18.635036 2.706481 44.263447 -6.167563 5.932024 -8.534408 -12.637552 29.105324 13.802516 4.226019 -2.660458 41.471329 -4.552926 -6.259245 12.920801 -4.370797 -1.515391 -17.713486 -5.409669 0.367848 25.239998 5.561214 4.218104 -4.904458 1.593419 3.337488 
1.775080 51.801086 22.288834 -1.347356 0.637453 1.352678 24.673485 2.871841 -5.843542 -23.295370 6.615921 -1.770674 -16.971581 -6.674293 0.698447 37.435795 6.587697 1.553500 9.553514 -10.448139 3.647584 -66.310188 -37.513962 29.640238 -56.998371 8.959290 11.083674 8.524705 12.647240 -55.247448 -5.779580 5.050342 2.610686 71.876625 18.072863 4.098277 45.023579 -6.399850 6.225644 -8.534408 -12.637552 30.667822 12.265711 4.882082 -2.441894 43.839466 -4.348341 -6.554000 16.417063 -3.288613 -1.138561 -16.361431 -4.559137 0.664806 24.798330 5.574940 4.132897 -5.036705 1.546608 3.341798 
1.681986 51.924061 22.943321 -1.474102 0.253972 1.517447 24.715061 3.160035 -5.753705 -23.422863 6.523640 -1.789288 -16.626490 -6.634566 0.624701 37.073944 6.672515 1.477256 9.553514 -10.448139 3.647584 -66.348709 -37.094952 29.655653 -56.912994 8.945848 11.039962 8.524705 12.647240 -55.159561 -5.779580 5.050342 2.610686 71.822159 17.880798 4.978794 45.363396 -6.500435 6.347480 -8.534408 -12.637552 31.663918 10.607891 5.484704 -2.455180 46.282303 -4.150333 -6.812158 19.686401 -2.255199 -0.837237 -14.934056 -3.875304 0.967166 24.211536 5.604103 4.066639 -5.388402 1.084600 3.288411 
1.603674 52.037910 23.580513 -1.552292 -0.157933 1.381713 24.875528 3.419218 -5.308942 -23.373703 6.443142 -1.690354 -16.729395 -6.622888 0.538240 36.815880 6.602135 1.237059 9.553514 -10.448139 3.647584 -66.533798 -37.073360 29.850416 -56.647186 8.907766 10.918694 8.524705 12.647240 -54.974010 -5.779580 5.050342 2.610686 71.771492 18.520725 4.598206 45.002579 -6.388794 6.209138 -8.534408 -12.637552 31.292826 8.967433 6.010923 -2.131199 48.673016 -3.926307 -7.067914 21.679214 -1.658140 -0.650636 -13.649736 -3.153745 1.394964 23.646788 5.619588 3.999328 -5.910363 0.661086 3.241159 
1.530079 52.140121 24.203552 -1.689126 -0.645008 1.318307 25.089256 3.837775 -4.998516 -23.354044 6.416367 -1.657042 -16.788967 -6.554336 0.467175 36.473217 6.362988 1.022441 9.553514 -10.448139 3.647584 -66.846710 -36.947906 29.648964 -56.457058 8.885840 10.849277 8.524705 12.647240 -55.169323 -5.779580 5.050342 2.610686 71.569496 19.004608 4.721972 44.807709 -6.334135 6.138551 -8.534408 -12.637552 30.970564 7.337379 6.654374 -1.739061 51.020786 -3.702063 -7.312184 22.411556 -1.603113 -0.542181 -12.384098 -2.381603 1.748488 23.270430 5.644210 3.940600 -6.417853 0.308512 3.221053 
1.455855 52.212463 24.815582 -1.767317 -0.905551 1.366317 25.123629 3.965880 -4.881240 -23.236046 6.352126 -1.629940 -16.708792 -6.477021 0.408756 36.307190 6.446263 0.954277 9.553514 -10.448139 3.647584 -66.968872 -36.755894 29.671520 -56.318729 8.864199 10.784208 8.524705 12.647240 -55.140030 -5.779580 5.050342 2.610686 71.475227 19.334194 5.174512 44.838634 -6.343314 6.146627 -8.534408 -12.637552 31.107281 5.747270 7.122934 -1.386115 53.209126 -3.470076 -7.532102 22.579933 -2.110056 -0.332760 -11.267393 -1.865024 2.031585 23.005465 5.663484 3.891302 -6.959575 0.009861 3.179547 
